<?xml version="1.0" encoding="UTF-8"?>
<svg version="1.1" xmlns="http://www.w3.org/2000/svg" width="1250" height="1250">
<path d="M0 0 C1.80667145 0.00515121 1.80667145 0.00515121 3.64984131 0.01040649 C21.04658951 0.06845808 38.32579601 0.24118601 55.625 2.25 C56.29096191 2.32541016 56.95692383 2.40082031 57.64306641 2.47851562 C80.90924315 5.12059793 103.80451742 9.01218067 126.625 14.25 C127.7804834 14.51506348 128.9359668 14.78012695 130.12646484 15.05322266 C149.93378156 19.69578991 169.27302523 25.94226971 188.50695801 32.52801514 C190.50287126 33.20836952 192.50219906 33.87742858 194.50292969 34.54345703 C209.18041989 39.50196047 219.47577524 44.53658872 228.625 57.25 C229.63626953 58.549375 229.63626953 58.549375 230.66796875 59.875 C254.42594084 91.76207953 260.33063975 131.14472353 255.1652832 169.8515625 C249.71864987 206.33025022 237.07778748 240.92089274 221.625 274.25 C221.33884827 274.86766235 221.05269653 275.48532471 220.75787354 276.1217041 C213.44118267 291.87391135 205.66858971 307.34796797 197.16552734 322.49707031 C195.55030625 325.38347809 193.95565471 328.28061867 192.36328125 331.1796875 C184.15635444 346.05873001 175.44447508 360.58492481 166.56591797 375.06738281 C164.34364909 378.71134471 162.15895267 382.37630783 159.98144531 386.04711914 C153.12725219 397.59381646 145.88049724 408.87817912 138.60791016 420.16455078 C135.53153463 424.95145474 132.48556701 429.75754323 129.4375 434.5625 C125.04066473 441.48525584 120.60465612 448.38056066 116.125 455.25 C109.77475897 464.98896934 103.52367938 474.78913268 97.30078125 484.60986328 C95.71607536 487.10651385 94.12471367 489.59877667 92.53125 492.08984375 C82.10136771 508.43220708 71.79671033 524.90134917 63.48828125 542.44238281 C62.65950804 544.17774391 61.79913515 545.89790625 60.9375 547.6171875 C40.22708775 589.90094584 31.7076768 636.72256253 27.625 683.25 C27.521875 684.35069824 27.41875 685.45139648 27.3125 686.58544922 C26.19999515 700.2712455 26.37766748 714.0286159 26.375 727.75 C26.37470543 728.44558266 26.37441086 729.14116531 26.37410736 729.85782623 C26.36915521 802.50824643 36.5421293 874.37936479 46.08661938 946.26506138 C47.1451692 954.23866896 48.20005231 962.21275499 49.25 970.1875 C49.38971914 971.24835375 49.38971914 971.24835375 49.53226089 972.33063889 C52.36591642 993.86715145 54.99527149 1015.42104872 57.39659882 1037.01015091 C57.62141526 1039.03028856 57.8474224 1041.05029044 58.07354736 1043.07028198 C64.08253989 1097.0033415 59.62338274 1147.42177558 48.875 1200.375 C48.72647583 1201.11290771 48.57795166 1201.85081543 48.42492676 1202.61108398 C48.0049529 1204.68261292 47.57494342 1206.75174912 47.140625 1208.8203125 C46.89602539 1209.99352051 46.65142578 1211.16672852 46.39941406 1212.37548828 C45.625 1215.25 45.625 1215.25 43.625 1218.25 C42.89208016 1215.55333348 42.44130601 1212.99241419 42.22363281 1210.20800781 C42.12752716 1209.01842468 42.12752716 1209.01842468 42.02947998 1207.80480957 C41.96303284 1206.94625366 41.89658569 1206.08769775 41.828125 1205.203125 C41.6756192 1203.32645759 41.52260172 1201.44983172 41.36914062 1199.57324219 C41.28897705 1198.5836853 41.20881348 1197.59412842 41.1262207 1196.57458496 C39.77267991 1180.00916608 38.20895454 1163.49024444 36.125 1147 C36.02948853 1146.23546509 35.93397705 1145.47093018 35.83557129 1144.68322754 C34.05120658 1130.49656877 31.83932355 1116.37487527 29.625 1102.25 C28.55434799 1102.24120064 28.55434799 1102.24120064 27.46206665 1102.23222351 C-41.26133317 1101.64301408 -41.26133317 1101.64301408 -67.375 1098.25 C-68.37974365 1098.12078156 -68.37974365 1098.12078156 -69.40478516 1097.98895264 C-89.26901602 1095.41780321 -108.87404836 1091.84987329 -128.375 1087.25 C-129.44782227 1087.00056641 -130.52064453 1086.75113281 -131.62597656 1086.49414062 C-166.90971426 1078.18328748 -201.16643026 1065.58694794 -234.01611328 1050.34130859 C-236.34748946 1049.2627274 -238.686699 1048.20281982 -241.02734375 1047.14453125 C-266.37421193 1035.55936811 -291.24290391 1021.11870973 -313.63671875 1004.51708984 C-315.54998238 1003.12244964 -317.48958237 1001.77157388 -319.4375 1000.42578125 C-328.86780972 993.90231691 -337.83580398 986.98580326 -346.65771484 979.66308594 C-348.949352 977.77738849 -351.28672067 975.95236343 -353.625 974.125 C-358.79980052 969.99727451 -363.63501565 965.52469811 -368.47094727 961.01049805 C-369.96597384 959.62818793 -371.47121502 958.25692432 -372.98022461 956.88989258 C-380.03115965 950.49854658 -386.86121777 943.9207582 -393.5769043 937.1784668 C-395.20052229 935.54943428 -396.82949603 933.92589272 -398.45898438 932.30273438 C-403.97476476 926.79077436 -409.33345243 921.20380383 -414.375 915.25 C-415.32386752 914.16651861 -416.27433815 913.08443865 -417.2265625 912.00390625 C-424.44435627 903.72815483 -431.18459983 895.15134901 -437.77685547 886.37158203 C-439.32116689 884.32146497 -440.87907504 882.28249782 -442.44140625 880.24609375 C-459.38534243 858.06959277 -473.97814785 834.26893185 -487.08496094 809.65380859 C-488.18379461 807.60628469 -489.30433036 805.57497648 -490.4453125 803.55078125 C-528.59366047 734.83586995 -547.54660141 653.41924081 -530.80810547 399.16577148 C-518.81356792 357.53812228 -502.16386677 316.72454776 -480.375 279.25 C-479.94171387 278.49783203 -479.50842773 277.74566406 -479.06201172 276.97070312 C-466.87801723 255.89711788 -453.35685558 235.43993889 -438.375 216.25 C-437.45654328 215.0563649 -436.53857593 213.86235309 -435.62109375 212.66796875 C-426.64180091 201.0425502 -417.07038338 189.95035252 -407.0859375 179.1796875 C-405.26743746 177.2144497 -403.45908212 175.24409411 -401.6640625 173.2578125 C-393.40028157 164.1273568 -384.94568712 155.1366322 -375.5546875 147.1484375 C-373.23743756 145.13018755 -370.99304482 143.04678706 -368.74804688 140.94897461 C-362.49420297 135.10909459 -356.0830574 129.56859695 -349.375 124.25 C-348.33198264 123.41412316 -347.28901588 122.57818316 -346.24609375 121.7421875 C-331.79409618 110.21803868 -316.91433273 99.26330312 -301.375 89.25 C-300.64845215 88.77852539 -299.9219043 88.30705078 -299.17333984 87.82128906 C-287.82745445 80.47406941 -276.29825191 73.61646415 -264.375 67.25 C-263.4773291 66.77030762 -262.5796582 66.29061523 -261.65478516 65.79638672 C-203.92607293 35.07029198 -142.26393249 14.0760782 -77.375 5.25 C-77.375 5.91 -77.375 6.57 -77.375 7.25 C-78.48875 7.7346875 -79.6025 8.219375 -80.75 8.71875 C-90.43075166 12.95895557 -99.97687317 17.38095396 -109.37304688 22.22021484 C-110.71851512 22.91231058 -112.06621957 23.6000746 -113.41601562 24.28369141 C-136.04857076 35.75491328 -157.07624203 49.61572207 -175.375 67.25 C-176.29796875 68.09820312 -177.2209375 68.94640625 -178.171875 69.8203125 C-198.95672117 89.48958783 -212.19809664 118.00938739 -213.33203125 146.609375 C-213.87179889 173.37720695 -206.51830022 198.7316268 -196.375 223.25 C-195.85945557 224.49861816 -195.85945557 224.49861816 -195.33349609 225.77246094 C-185.55096408 249.10476999 -173.17929587 271.40267454 -160.2421875 293.10693359 C-158.24089405 296.47574268 -156.25817787 299.8551455 -154.28125 303.23828125 C-153.93193924 303.8358725 -153.58262848 304.43346375 -153.22273254 305.04916382 C-152.50853654 306.27104034 -151.79436948 307.49293378 -151.08023071 308.71484375 C-146.51728662 316.51942853 -141.94190008 324.31581324 -137.30078125 332.07421875 C-98.79335052 396.46939268 -54.97662671 472.1283739 -74.2800293 549.75927734 C-78.91033572 567.25449752 -85.61768913 582.1012193 -98.375 595.25 C-98.90351562 595.85199219 -99.43203125 596.45398438 -99.9765625 597.07421875 C-122.25096729 621.57606402 -161.9862968 629.219798 -193.109375 633.6484375 C-193.85887798 633.75577209 -194.60838097 633.86310669 -195.38059616 633.97369385 C-215.03157376 636.76710282 -234.77215235 638.61685911 -254.527771 640.48962402 C-272.88512442 642.23152708 -291.20204784 644.03931465 -309.44140625 646.78125 C-310.74369171 646.97485107 -312.04597717 647.16845215 -313.38772583 647.36791992 C-341.06741565 651.6959997 -373.44109108 659.76773771 -391.49609375 682.9765625 C-402.80213536 699.85052568 -405.62130389 718.16063376 -402.12109375 738.02734375 C-399.66697577 748.62759159 -395.19110606 756.84567506 -388.375 765.25 C-387.86582031 765.93449219 -387.35664063 766.61898437 -386.83203125 767.32421875 C-377.66504112 778.94202372 -363.30144926 786.55662152 -350.375 793.25 C-349.4459082 793.73799072 -349.4459082 793.73799072 -348.49804688 794.23583984 C-311.85748156 813.24000266 -269.61271442 823.14516773 -230.12402344 834.32229614 C-188.07389856 846.22991201 -145.14522597 858.58940892 -106.39453125 879.17822266 C-104.95315356 879.94317044 -103.50732252 880.69975104 -102.05859375 881.45068359 C-59.98552337 903.29567517 -26.80741319 935.7721773 -12.22265625 981.49609375 C-11.94292969 982.40488281 -11.66320312 983.31367187 -11.375 984.25 C-0.5627204 953.67923992 -1.16253436 918.45934864 -15.22558594 889.00146484 C-48.14741799 822.67134851 -127.09124852 794.69096028 -192.83117676 772.43261719 C-208.604707 767.1687971 -224.47411835 762.18797715 -240.33349609 757.19018555 C-253.48234249 753.04608551 -266.62575684 748.89011934 -279.71282196 744.55396461 C-281.55069364 743.94517058 -283.38961174 743.33953828 -285.22857666 742.73405457 C-316.56405982 732.28198987 -316.56405982 732.28198987 -323.375 725.25 C-322.68850876 725.1859346 -322.00201752 725.1218692 -321.29472351 725.05586243 C-274.18956679 720.83235806 -274.18956679 720.83235806 -227.375 714.25 C-226.64224854 714.12580688 -225.90949707 714.00161377 -225.15454102 713.87365723 C-163.01290307 703.28155735 -99.59541706 686.11425518 -52.375 642.25 C-51.37533203 641.34894531 -51.37533203 641.34894531 -50.35546875 640.4296875 C-27.76836461 619.17664857 -15.4078312 587.62813266 -12.375 557.25 C-12.29523926 556.45368164 -12.21547852 555.65736328 -12.13330078 554.83691406 C-4.53349363 471.2556652 -46.92968004 384.0148796 -86.375 313.25 C-86.9333252 312.24582031 -87.49165039 311.24164063 -88.06689453 310.20703125 C-93.62299125 300.22063357 -99.21006959 290.25335141 -104.9140625 280.35058594 C-124.45650552 246.39951014 -144.25591811 211.36467476 -154.375 173.25 C-154.58382813 172.46866699 -154.79265625 171.68733398 -155.0078125 170.88232422 C-163.2360639 138.65283633 -158.93637592 106.63827189 -142.41015625 77.9765625 C-132.01311078 60.63507533 -117.1035187 45.70644522 -101.375 33.25 C-100.10462891 32.21359375 -100.10462891 32.21359375 -98.80859375 31.15625 C-89.69840955 23.74264157 -80.01459921 17.26113796 -70.125 10.9375 C-69.17109375 10.31810547 -68.2171875 9.69871094 -67.234375 9.06054688 C-66.30625 8.46693359 -65.378125 7.87332031 -64.421875 7.26171875 C-63.18195801 6.46447388 -63.18195801 6.46447388 -61.91699219 5.65112305 C-55.4278857 2.07438638 -48.9731233 1.6596947 -41.7109375 1.140625 C-39.99552261 1.01448822 -39.99552261 1.01448822 -38.24545288 0.88580322 C-25.49828409 0.02033315 -12.77137204 -0.06007784 0 0 Z M-12.25 193.53515625 C-24.8971826 209.69286197 -31.99846272 228.91223336 -31.8125 249.4375 C-31.80492676 250.61787842 -31.79735352 251.79825684 -31.78955078 253.0144043 C-31.31132488 278.54712933 -20.75031239 300.47181741 -2.375 318.25 C15.6529321 334.06623145 39.3069311 342.28069081 63.27734375 341.09765625 C87.63746948 339.22098954 109.34334839 328.54671115 125.98828125 310.71875 C128.00799366 308.30293866 129.83746852 305.84192065 131.625 303.25 C132.30046875 302.27675781 132.9759375 301.30351562 133.671875 300.30078125 C140.7517426 289.48135952 146.04747924 277.16969536 147.625 264.25 C147.75777344 263.22003906 147.89054688 262.19007813 148.02734375 261.12890625 C150.4690282 236.95897364 143.19977684 211.87400635 127.83374023 193.01147461 C110.69106923 172.82645856 87.24525208 162.40761918 61.1875 160.02734375 C32.97183887 158.90067673 5.95307742 172.43908974 -12.25 193.53515625 Z " fill="#90BFB8" transform="translate(625.375,15.75)"/>
<path d="M0 0 C41.22038315 8.28331662 81.79852809 32.24683563 112 61 C112.77988281 61.71542969 113.55976562 62.43085937 114.36328125 63.16796875 C126.02305004 74.20643547 139.24000653 90.8794044 141.98828125 107.06640625 C145.69169948 127.11088565 159.9954502 138.55774997 174.50706482 151.80209351 C179.014114 155.93677922 183.03339508 160.34877062 187 165 C188.47534536 166.62847017 189.9539343 168.25401517 191.4375 169.875 C195.83850329 174.76336271 199.94919809 179.81984264 204 185 C205.04009824 186.31010733 206.08048647 187.61998446 207.12109375 188.9296875 C269.92528486 268.37163662 309.07913363 363.80632708 322.24932861 594.88885498 C315.90165593 648.63662745 302.02036584 701.5187466 280 751 C279.55221191 752.01755371 279.10442383 753.03510742 278.64306641 754.08349609 C258.22059231 800.2878353 231.56060802 843.34548003 199 882 C198.13390387 883.04018918 197.26803127 884.08056449 196.40234375 885.12109375 C190.63197037 892.02894084 184.68636494 898.75241414 178.546875 905.33544922 C176.85614867 907.15479457 175.17816619 908.98547222 173.5 910.81640625 C165.57281845 919.4212407 157.36026745 927.58064684 148.703125 935.44970703 C147.12748794 936.88395235 145.56195495 938.32823164 144 939.77734375 C138.82524541 944.54782064 133.53448771 949.1187167 128.0546875 953.53515625 C125.8168842 955.34085175 123.59518101 957.15979312 121.3828125 958.99609375 C93.98244034 981.65561883 63.86876373 1000.97329935 32.50732422 1017.65820312 C30.25577295 1018.86312287 28.01826672 1020.08947589 25.78515625 1021.328125 C-19.64767018 1046.32731503 -86.60337371 1075 -140 1075 C-139.3870731 1068.63918088 -138.40478673 1062.40790269 -137.28613281 1056.11743164 C-132.9571419 1031.61259351 -130.45452196 1006.89265248 -130 982 C-129.97808594 980.80181641 -129.95617187 979.60363281 -129.93359375 978.36914062 C-129.67251059 960.9200828 -130.01357294 943.50795611 -130.7578125 926.07421875 C-130.79945967 925.08698004 -130.84110683 924.09974133 -130.88401604 923.08258629 C-132.02159922 896.59110943 -133.91441624 870.14942303 -135.78753662 843.70178223 C-136.52108356 833.32596024 -137.24312548 822.9493307 -137.96554375 812.57272911 C-138.21426177 809.01462091 -138.46597737 805.4567358 -138.71827698 801.89888 C-139.89108561 785.25565414 -140.94654058 768.60809526 -141.3515625 751.92578125 C-141.37525909 751.00041565 -141.39895569 750.07505005 -141.42337036 749.12164307 C-143.70543666 656.42374132 -127.05080284 583.75014727 -81 503 C-80.50677246 502.13342773 -80.01354492 501.26685547 -79.50537109 500.37402344 C-72.99685985 488.93903641 -66.42968429 477.53833988 -59.84814453 466.14526367 C-54.87049953 457.52302359 -49.92587847 448.88224269 -44.99285889 440.23443604 C-40.14901896 431.74369753 -35.27183499 423.27281031 -30.375 414.8125 C-24.28622474 404.28415868 -18.31703324 393.69290806 -12.39453125 383.0703125 C-10.20088071 379.13837999 -7.99126043 375.21637807 -5.76171875 371.3046875 C7.19224822 348.57548359 19.4286047 325.46383979 31.36523438 302.18603516 C32.41787872 300.13451057 33.47362634 298.0845738 34.53320312 296.03662109 C47.73257266 270.49436286 59.48183508 244.13798985 69 217 C69.34611328 216.02981934 69.69222656 215.05963867 70.04882812 214.06005859 C75.4185436 198.94228229 79.76049253 183.71673453 83 168 C83.17934082 167.13407227 83.35868164 166.26814453 83.54345703 165.37597656 C90.41704566 130.52340103 87.20311261 93.42345518 68 63 C63.97245608 57.09532345 59.53894897 51.51652777 55 46 C54.195625 45.02208496 54.195625 45.02208496 53.375 44.02441406 C38.31567195 25.85540859 21.5267001 11.13295862 0 1 C0 0.67 0 0.34 0 0 Z " fill="#B8BFBD" transform="translate(851,36)"/>
</svg>
